<svg xmlns="http://www.w3.org/2000/svg" width="329.7" height="329.6" viewBox="0 0 329.7 329.6"><style>.st0{fill:#ef4050}</style><path class="st0" d="M164.8 329.6C73.9 329.6 0 255.7 0 164.8S73.9 0 164.8 0s164.8 73.9 164.8 164.8-73.9 164.8-164.8 164.8zm0-323.9C77.1 5.7 5.7 77.1 5.7 164.8 5.7 252.6 77.1 324 164.8 324S324 252.6 324 164.8C324 77.1 252.6 5.7 164.8 5.7z"/><path class="st0" d="M129.5 117.5c2.3 1.8 4.3 3.8 6.1 5.5 1.3 1.2 2.5 2.4 3.6 3.4 6.2 5.2 8.8 5.5 8.8 5.5v3.5c-2.8.1-10.3 1.3-11.6 5.5-1.2 3.9-.8 7.3 1 9.7 1.7 2.3 4.6 3.5 8.3 3.5H173c-3.5-3.9-8.3-11.3-7.2-21.7 1-9 6.9-17 14.7-20.8l-2.2-2.2c-4.2-4.2-3.9-11 .8-15.7 2-1.9 5.1-3.1 8-3.8-8-4.3-17.3-12.8-20.6-15.9-4.6-4.4-11.9-6.3-18.7-4.9-6.3 1.3-10.2 3.9-13.6 8.8-3.2 4.8-3.8 9.6-4.4 16.3-.5 6.3 0 23.2 0 23.3h-.3zm-19.8-3.8c-10.5 0-18.1 6.3-21.1 12.8-4.3 9.2-2.3 18.7 5.4 26.1 4.3 4.1 6.3 6.3 8.4 8.6 1.9 2 3.9 4.2 7.6 7.9 13.5 13.5 45.6 55.6 52.9 65.4 4.5-6.1 18.2-22.3 35.1-42.3 6.9-8.1 12.3-14.5 14.1-16.7 4.1-5.2 14.4-14.1 19.9-18.8h-3.7c-5.2 0-12-4.4-12.7-10-.7-5.6 1.5-12.6 9.5-14.3 1.1-.2 2.1-.4 2.9-.6-5.3-2.5-12.2-7.2-17.8-12.4-7.6-7-12.5-7.5-21.1-6.8-9.9.8-18.9 9.8-20 20.1-1.5 13.7 9 21.6 9.1 21.7l4.2 3.1h-36.9c-6.2 0-9.5-2.7-11.1-4.9-2.5-3.3-3-7.8-1.5-12.8 1.2-4.1 5.4-6.1 8.9-7-1.4-.9-3-2.1-5-3.8-1.2-1-2.4-2.2-3.8-3.5-5.1-5-11.4-11.1-21.6-11.8h-1.7m53.7 127.1l-1.8-2.3c-.4-.5-39.3-52.2-54.1-66.9-3.8-3.8-5.8-6-7.7-8-2.2-2.4-4.1-4.5-8.3-8.5-8.9-8.5-11.1-19.5-6.2-30.1 3.7-8 13.3-15.6 26.3-14.7 5.9.4 10.7 2.4 14.6 5-.1-4.9-.4-16.3.1-21.4.5-5.9 1.1-12.1 5-17.9 3.8-5.7 8.5-8.8 15.7-10.3 7.8-1.6 16.3.6 21.8 5.8 9 8.6 20.5 17.3 25.8 17.5v3.5c-2.7.1-10.3.9-13.1 3.7-3.4 3.4-3.7 7.9-.8 10.8l3.2 3.2c1.6-.5 3.2-.8 4.9-.9 8.6-.7 14.9-.5 23.8 7.8 8 7.4 17.1 12.7 21 13.3l1.4.2.1 1.5c0 1.4-.3 2.1-9.4 3.9-7.4 1.5-6.9 9-6.8 10.4.4 3.8 5.9 6.9 9.2 6.9h13.3l-3.7 3.1c-.2.1-17.6 14.6-23.1 21.4-1.8 2.3-7.2 8.7-14.1 16.8-13.1 15.4-34.9 41.2-36.1 43.8l-1 2.4z"/><path class="st0" d="M124.6 127.4c0 2.5-2 4.5-4.5 4.5s-4.5-2-4.5-4.5 2-4.5 4.5-4.5 4.5 2 4.5 4.5m41.7-44.3c0 2.5-2 4.5-4.5 4.5s-4.5-2-4.5-4.5 2-4.5 4.5-4.5 4.5 2 4.5 4.5m41.7 42.7c0 2.5-2 4.5-4.5 4.5m-68.3 44.2l5.9-16s-15.7-9.5-27.5-3.1c-11.8 6.5-13.9 23.2-8.1 30.6 4.3 5.5 10.9 6.3 14 6.7 4.5.7 5.1 6.6-.3 6.7-6.7.2-12.9-6.2-12.9-6.2l-6.2 17.7s14.5 6 25.3 4.1c11.6-2.1 17.6-10.5 17.3-20.3-.2-7.7-3.5-15.2-13.4-17.4-6.2-1.4-9.5-2.8-7.9-6.4 1-2.5 9-.7 13.8 3.6m-52.5-.7l5.9-16s-15.7-9.6-27.5-3.1-13.9 23.2-8.1 30.6c4.3 5.5 10.9 6.3 14 6.7 4.5.7 5.1 6.6-.3 6.7-6.7.2-12.9-6.2-12.9-6.2l-6.2 17.7s14.5 6 25.3 4.1c11.6-2.1 17.5-10.5 17.3-20.4-.2-7.7-3.5-15.2-13.4-17.4-6.2-1.4-9.5-2.8-7.9-6.4 1.1-2.4 9-.5 13.8 3.7m72.7 41.8l6.2-62.8h21.1l5 26.8 4-26.8h20.8s6.4 44.9 21.1 61.9c14.3 16.6 34.8 11.5 48.6 1.4 0 0-10.2 16.5-29.5 20.8-21.6 4.8-44.4-12.9-50-43.2l-9.8 21.9h-10.4l-7.6-22.5-3.4 22.5h-16.1z"/><path class="st0" d="M231.6 152.7h19.6v36.7c0 3.6.6 7.4 5.1 7.3 4.4 0 5-3.7 5-7.3v-36.8h19.4s.3 32 0 40.4c-.3 8.4-5.1 22.5-23.9 22.5-18.8 0-25.2-12.6-25.2-22.5.1-10.6 0-40.3 0-40.3m-28.1-22.4c-2.5 0-4.5-2-4.5-4.5s2-4.5 4.5-4.5 4.5 2 4.5 4.5m82.1 25.3c-4.4 0-8-3.6-8-8s3.6-8 8-8 8 3.6 8 8-3.6 8-8 8zm0-14.4c-3.5 0-6.4 2.9-6.4 6.4 0 3.5 2.9 6.4 6.4 6.4 3.5 0 6.4-2.9 6.4-6.4 0-3.5-2.9-6.4-6.4-6.4z"/><path class="st0" d="M291.7 147l-1.5-2.8h-1v2.8h-1.8v-7.9h2.8c1.7 0 3 .6 3 2.5 0 1.2-.6 1.9-1.4 2.3l1.8 3.2h-1.9zm-2.5-4.2h.9c.9 0 1.4-.4 1.4-1.2 0-.8-.5-1-1.4-1h-.9v2.2z"/></svg>